<svg width="400" height="400" viewBox="0 0 400 400" fill="none" xmlns="http://www.w3.org/2000/svg">
<circle cx="200" cy="200" r="99" transform="rotate(90 200 200)" stroke="url(#paint0_linear_224_27)" stroke-width="2" stroke-dasharray="6 6"/>
<circle cx="200" cy="200" r="149" transform="rotate(90 200 200)" stroke="url(#paint1_linear_224_27)" stroke-width="2"/>
<circle cx="200" cy="200" r="199" transform="rotate(90 200 200)" stroke="url(#paint2_linear_224_27)" stroke-width="2" stroke-dasharray="6 6"/>
<circle r="21.5" transform="matrix(0 -1 -1 0 372.5 299.5)" fill="#000711" stroke="url(#paint3_linear_224_27)" stroke-width="2"/>
<circle r="21.5" transform="matrix(0 -1 -1 0 50.5 72.5)" fill="#000711" stroke="url(#paint4_linear_224_27)" stroke-width="2"/>
<circle r="14" transform="matrix(0 -1 -1 0 178 298)" fill="#000711" stroke="url(#paint5_linear_224_27)" stroke-width="2"/>
<defs>
<linearGradient id="paint0_linear_224_27" x1="200" y1="100" x2="200" y2="300" gradientUnits="userSpaceOnUse">
<stop stop-color="#24ECCA"/>
<stop offset="1" stop-color="#74E250"/>
</linearGradient>
<linearGradient id="paint1_linear_224_27" x1="200" y1="50" x2="200" y2="350" gradientUnits="userSpaceOnUse">
<stop stop-color="#24ECCA"/>
<stop offset="1" stop-color="#74E250"/>
</linearGradient>
<linearGradient id="paint2_linear_224_27" x1="200" y1="0" x2="200" y2="400" gradientUnits="userSpaceOnUse">
<stop stop-color="#24ECCA"/>
<stop offset="1" stop-color="#74E250"/>
</linearGradient>
<linearGradient id="paint3_linear_224_27" x1="22.5" y1="0" x2="22.5" y2="45" gradientUnits="userSpaceOnUse">
<stop stop-color="#24ECCA"/>
<stop offset="1" stop-color="#74E250"/>
</linearGradient>
<linearGradient id="paint4_linear_224_27" x1="22.5" y1="0" x2="22.5" y2="45" gradientUnits="userSpaceOnUse">
<stop stop-color="#24ECCA"/>
<stop offset="1" stop-color="#74E250"/>
</linearGradient>
<linearGradient id="paint5_linear_224_27" x1="15" y1="0" x2="15" y2="30" gradientUnits="userSpaceOnUse">
<stop stop-color="#24ECCA"/>
<stop offset="1" stop-color="#74E250"/>
</linearGradient>
</defs>
</svg>
