<svg width="31" height="38" viewBox="0 0 31 38" fill="none" xmlns="http://www.w3.org/2000/svg">
<path d="M15.6002 20.8C18.5825 20.8 21.0002 18.3823 21.0002 15.4C21.0002 12.4177 18.5825 10 15.6002 10C12.6179 10 10.2002 12.4177 10.2002 15.4C10.2002 18.3823 12.6179 20.8 15.6002 20.8Z" stroke="#69E069" stroke-width="2" stroke-linecap="round" stroke-linejoin="round"/>
<path d="M15.6002 1C11.7811 1 8.11838 2.51714 5.41786 5.21766C2.71733 7.91819 1.2002 11.5809 1.2002 15.4C1.2002 18.8056 1.9238 21.034 3.9002 23.5L15.6002 37L27.3002 23.5C29.2766 21.034 30.0002 18.8056 30.0002 15.4C30.0002 11.5809 28.4831 7.91819 25.7825 5.21766C23.082 2.51714 19.4193 1 15.6002 1V1Z" stroke="#69E069" stroke-width="2" stroke-linecap="round" stroke-linejoin="round"/>
</svg>
